<?xml version="1.0" encoding="UTF-8"?><svg id="Layer_2" xmlns="http://www.w3.org/2000/svg" viewBox="0 0 288.65 202.25"><defs><style>.cls-1{fill:#fff;}.cls-2{fill:#5674e2;}.cls-3{fill:#ce7a0b;}.cls-4{fill:#7f97ff;}.cls-5{fill:#6b1c6b;}.cls-6{fill:#5f3e1b;}.cls-7{fill:#ef9d30;}.cls-8{fill:#abafef;}.cls-9{stroke:#fff;}.cls-9,.cls-10{fill:none;stroke-miterlimit:10;stroke-width:3px;}.cls-11{fill:#ffa78f;}.cls-12{fill:#322b80;}.cls-13{fill:#6f87ff;}.cls-14{fill:#313280;}.cls-15{fill:#dd8b78;}.cls-16{fill:#bfc1ff;}.cls-17{fill:#242651;}.cls-18{fill:#80217e;}.cls-10{stroke:#d9d9d9;}.cls-19{fill:#b7650b;}.cls-20{fill:#3f2d1f;}.cls-21{fill:#e1e3ff;}.cls-22{fill:#dc911b;}</style></defs><g id="OBJECT"><g><path class="cls-4" d="M284.17,202.25H4.47c-2.47,0-4.47-2-4.47-4.47H0c0-2.47,2-4.47,4.47-4.47H284.17c2.47,0,4.47,2,4.47,4.47h0c0,2.47-2,4.47-4.47,4.47Z"/><g><path class="cls-11" d="M246.17,196.47c-3.74,.6-11.16,.64-15.1,1.17-4.91,.67-7.77-1.15-6.44-2.67,1.29-1.48,12.06-6.08,12.82-7.84,.03-.05,.04-.11,.04-.16,.09-1.62-1.24-8.28-1.24-8.28l8.76,.57,.95,6.86,.67,2.98,1.13,5.04c.24,1.08-.48,2.16-1.59,2.33Z"/><path class="cls-11" d="M270.64,197.3c-2.92,1.49-9.24,4.45-13.47,4.53-5.65,.12-6.61-2.16-4.76-3.73s9.36-8.22,9.36-8.22v-.08l-.97-9.16,8.53-.23,.79,8.87s0,.03,.03,.08l1.59,5.43c.28,1-.18,2.05-1.1,2.51Z"/><path class="cls-14" d="M270.64,197.3c-2.92,1.49-9.24,4.45-13.47,4.53-5.65,.12-6.61-2.16-4.76-3.73s9.36-8.22,9.36-8.22v-.08c.53,.05,1.32,.21,2.25,.61,1.78,.79,6.09-1.14,6.09-1.14,0,0,0,.03,.03,.08l1.59,5.43c.28,1-.18,2.05-1.1,2.51Z"/><path class="cls-14" d="M246.17,196.47c-3.74,.6-11.16,.64-15.1,1.17-4.91,.67-7.77-1.15-6.44-2.67,1.29-1.48,12.06-6.08,12.82-7.84,.55,.1,1.51,.44,2.84,1.51,1.6,1.31,4.65,.6,6.35,.45l1.13,5.04c.24,1.08-.48,2.16-1.59,2.33Z"/><path class="cls-14" d="M272.15,184.03c-6.79,2.44-14.16,1.14-14.16,1.14l-14.21-77.07s0,.04,0,.12c0,.03,0,.05,0,.09l4.02,74.96c-6.41,1.31-12.55,.28-13.8,.04-.15-.03-.23-.04-.23-.04,0,0-2-34.03-3.72-49.27-.87-7.76-1.74-19.43-2.38-29-.62-9.23-1.03-16.51-1.03-16.51h32.07l6.01,34.85,7.42,60.7Z"/><path class="cls-5" d="M229.83,32.09s-4.34,1.73-7.01,9.54-8.19,32.57-8.19,32.57l-15.9,3.24,4.96,8.95s22.29-.19,26.14-9.33c3.85-9.14,0-44.96,0-44.96Z"/><path class="cls-12" d="M190.85,48.09l2.9,17.07c.09,.53,.53,.94,1.07,.98l10.54,.85c.76,.06,1.38-.61,1.27-1.36l-2.76-17.64c-.09-.56-.57-.99-1.14-1l-10.68-.29c-.75-.02-1.32,.65-1.2,1.38Z"/><path class="cls-11" d="M212.3,58s-7.17-5.25-8.38-5.65c-1.21-.4-7.37,.4-8.02,1.56-.66,1.16,3.78,.76,5.15,.3l-.1,.91s-4.9,0-5.7,1.16,1.87,1.11,1.87,1.11c0,0-1.97,.45-1.82,1.51,.15,1.06,5.25,.45,5.25,.45l-.4,.86s-3.08,.05-3.73,.86c-.66,.81,1.51,.96,4.39,.96s3.99,3.34,6.86,3.54c2.88,.2,3.53,0,3.53,0l1.11-7.58Z"/><path class="cls-13" d="M259.44,63.34c-.2,2.06-.35,5-.45,8.14-.26,7.86-.27,17-.27,17,0,0-15.09,5.02-28.35,1.31-1.26-.36-2.51-.78-3.72-1.31,0,0-.3-27.41-.59-39.77-.04-1.65-.08-3.04-.12-4.05-.3-8.59,3.48-12.37,3.88-12.58,.41-.2,7.8-2.71,7.8-2.71l10.2,.98s8.79,2.13,10.94,5.32c.1,.15,.2,.33,.28,.53,1.8,4.26,1.05,20.45,.39,27.14Z"/><path class="cls-2" d="M259.44,63.34c-.2,2.06-.35,5-.45,8.14-9.12,3.68-20.96,9.7-28.62,18.31-1.26-.36-2.51-.78-3.72-1.31,0,0-.3-27.41-.59-39.77,3.21,.97,6.93,1.37,11.17,.7,10.58-1.67,17.98-8.64,21.81-13.22,1.8,4.26,1.05,20.45,.39,27.14Z"/><path class="cls-15" d="M245.92,22.48s-.05,7.67,.9,8.95c0,0-2.71,1.29-5.57,1.9-2.86,.62-5.24-.19-5.24-.19v-7.38l8.66-5.6,1.24,2.31Z"/><path class="cls-11" d="M245.73,11.24c-.32-.07-.61-.04-.87,.06,.01-1.95-.06-3.35-.06-3.35,0,0-12.68-3.66-15.64,0,0,0-.86,1.63-.86,4.05s-.7,6.93,0,9.88c.7,2.96,3.5,4.98,5.6,4.98,2.99,0,9.18-2.71,9.88-4.29,.39-.87,.76-1.71,.76-1.71,0,0,1.95-.67,2.52-2.71,.57-2.05,.38-6.52-1.33-6.91Z"/><path class="cls-12" d="M245.42,4.1S243.25,.2,237.39,0c-5.86-.19-8.71,2.52-11.48,1.76-2.76-.76-1.57,3,.38,3.33,0,0-1.24,.81-1.19,2.1s1.9,1.57,1.9,1.57c0,0-.43,2.57,1.28,3.52,0,0-.14-4.05,2.48-5.05,2.62-1,6.42,1.1,8.85,.81,0,0,.19,3.9,2.81,4.48,0,0-.43,1.43,.43,1.81s1.06-2.21,2.43-2.1c1.38,.1,1.47,2.53,1.42,4.82-.02,.96-.47,1.49-.99,1.78-.76,.43-1.03,1.38-.62,2.15l.8,1.5s3.71-8.19,3.57-13.24c-.14-5.05-4.06-5.14-4.06-5.14Z"/><path class="cls-18" d="M253.11,35.91l-17.09,24.95-24.46-3.61-1.8,9.96s21.89,7.94,31.67,5.27,21.02-24.19,20.64-30.66c-.38-6.48-7.07-8.66-8.95-5.9Z"/><path class="cls-11" d="M199.9,78.26l-3.11,.38s-7.05-1.02-9.9-.7c-2.86,.32-5.4,2.86-5.78,4.57s3.87-1.14,4.51-1.71l1.27,.25s-1.08,.51-1.33,2c-.25,1.49-.76,2.89-.7,4.67s1.9,2.1,2.86,2.48,4.06-.63,4.89-.7c.83-.06,.89-1.14,.89-1.14,0,0,2.48,.19,3.75-.44,1.27-.63,2.22-1.97,2.22-1.97l3.7-.51s-1.23-6.03-3.26-7.17Z"/><path class="cls-17" d="M247.81,183.27c-6.41,1.31-12.55,.28-13.8,.04,2.3-7,8.72-29.45,4.07-49.16-2.84-12.06-7-22.15-10.4-29.15-.62-9.23-1.03-16.51-1.03-16.51l17.13,19.62s0,.04,0,.12c0,.03,0,.05,0,.09l4.02,74.96Z"/></g><g><g><path class="cls-4" d="M16.84,22.22V183.82c0,5.24,4.24,9.49,9.48,9.49H126.15c5.24,0,9.48-4.25,9.48-9.49V22.22c0-5.23-4.24-9.48-9.48-9.48H26.33c-5.24,0-9.48,4.25-9.48,9.48Z"/><rect class="cls-14" x="26.59" y="12.74" width="118.79" height="180.56" rx="14.06" ry="14.06" transform="translate(171.98 206.05) rotate(180)"/><rect class="cls-4" x="32.35" y="17.68" width="107.24" height="168.33" rx="9.48" ry="9.48"/><path class="cls-14" d="M21.7,60.33h0c1.02,0,1.84-.82,1.84-1.84v-21.52c0-1.02-.82-1.84-1.84-1.84h0c-1.02,0-1.84,.82-1.84,1.84v21.52c0,1.02,.82,1.84,1.84,1.84Z"/><path class="cls-14" d="M21.7,74.49h0c1.02,0,1.84-.82,1.84-1.84v-6.14c0-1.02-.82-1.84-1.84-1.84h0c-1.02,0-1.84,.82-1.84,1.84v6.14c0,1.02,.82,1.84,1.84,1.84Z"/><path class="cls-1" d="M32.35,36.03V176.53c0,5.23,4.25,9.48,9.48,9.48h88.27c5.24,0,9.48-4.25,9.48-9.48V36.03H32.35Z"/><path class="cls-1" d="M118.57,29.82h12.86c1.64,0,2.96-1.33,2.96-2.96h0c0-1.64-1.33-2.96-2.96-2.96h-12.86c-1.64,0-2.96,1.33-2.96,2.96h0c0,1.64,1.33,2.96,2.96,2.96Z"/><path class="cls-1" d="M107.15,29.82h3.47c1.64,0,2.96-1.33,2.96-2.96h0c0-1.64-1.33-2.96-2.96-2.96h-3.47c-1.64,0-2.96,1.33-2.96,2.96h0c0,1.64,1.33,2.96,2.96,2.96Z"/><circle class="cls-1" cx="62.44" cy="26.04" r="2.14"/><path class="cls-1" d="M53.22,26.04c0,1.18,.96,2.14,2.14,2.14s2.14-.96,2.14-2.14-.96-2.14-2.14-2.14-2.14,.96-2.14,2.14Z"/><path class="cls-1" d="M46.13,26.04c0,1.18,.96,2.14,2.14,2.14s2.14-.96,2.14-2.14-.96-2.14-2.14-2.14-2.14,.96-2.14,2.14Z"/><rect class="cls-16" x="50.42" y="54.66" width="60.58" height="90.92" rx="6.39" ry="6.39"/><path class="cls-8" d="M108.02,80.87v78.71H56.81c-3.53,0-6.39-2.86-6.39-6.39V74.49h51.22c3.53,0,6.38,2.85,6.38,6.38Z"/><circle class="cls-16" cx="53.39" cy="170.88" r="2.97"/><path class="cls-16" d="M66.51,170.88c0,1.64-1.33,2.97-2.97,2.97s-2.97-1.33-2.97-2.97,1.33-2.97,2.97-2.97,2.97,1.33,2.97,2.97Z"/><circle class="cls-16" cx="73.7" cy="170.88" r="2.97"/><path class="cls-16" d="M86.83,170.88c0,1.64-1.33,2.97-2.97,2.97s-2.97-1.33-2.97-2.97,1.33-2.97,2.97-2.97,2.97,1.33,2.97,2.97Z"/><circle class="cls-16" cx="94.02" cy="170.88" r="2.97"/><path class="cls-16" d="M107.15,170.88c0,1.64-1.33,2.97-2.97,2.97s-2.97-1.33-2.97-2.97,1.33-2.97,2.97-2.97,2.97,1.33,2.97,2.97Z"/><path class="cls-16" d="M117.3,170.88c0,1.64-1.33,2.97-2.97,2.97s-2.97-1.33-2.97-2.97,1.33-2.97,2.97-2.97,2.97,1.33,2.97,2.97Z"/><circle class="cls-16" cx="124.49" cy="170.88" r="2.97"/></g><g><polygon class="cls-6" points="110.04 134.15 112.27 157.9 117.09 157.9 119.16 134.15 110.04 134.15"/><polygon class="cls-6" points="137.91 134.15 140.15 157.9 144.97 157.9 147.03 134.15 137.91 134.15"/><polygon class="cls-20" points="167.78 134.15 170.01 157.9 174.83 157.9 176.9 134.15 167.78 134.15"/><path class="cls-10" d="M136.02,87.24h37.39c4.37,0,7.92,3.54,7.92,7.92v16.37"/><path class="cls-22" d="M164.59,62.64v51.1h-62.29V63.74c0-8.61,6.98-15.59,15.59-15.59h32.2c3.48,0,6.66,1.22,9.17,3.27,3.25,2.66,5.33,6.7,5.33,11.23Z"/><path class="cls-7" d="M164.59,62.64v51.1h-38.89v-46.73c0-8.61,6.98-15.59,15.59-15.59h17.97c3.25,2.66,5.33,6.7,5.33,11.23Z"/><path class="cls-3" d="M113.42,108.23h0c-4.75,0-8.6-3.85-8.6-8.6V62.11c0-4.75,3.85-8.6,8.6-8.6h0c4.75,0,8.6,3.85,8.6,8.6v37.52c0,4.75-3.85,8.6-8.6,8.6Z"/><path class="cls-3" d="M102.29,111.52h74.83c7.07,0,12.81,5.74,12.81,12.81h0c0,7.07-5.74,12.81-12.81,12.81h-61.26c-7.49,0-13.57-6.08-13.57-13.57v-12.05h0Z"/><path class="cls-19" d="M138.14,132.55h-23.4c-4.97,0-9.01-4.03-9.01-9.01v-8.78h32.41c4.91,0,8.89,3.98,8.89,8.89h0c0,4.91-3.98,8.89-8.89,8.89Z"/><path class="cls-9" d="M102.3,87.24h37.39c4.37,0,7.92,3.54,7.92,7.92v16.37"/></g><path class="cls-21" d="M174.67,159.67H54.53c-2.14,0-3.87-1.73-3.87-3.87h0c0-2.14,1.73-3.87,3.87-3.87h120.14c2.14,0,3.87,1.73,3.87,3.87h0c0,2.14-1.73,3.87-3.87,3.87Z"/></g></g></g></svg>